<?xml version="1.0" encoding="utf-8"?>
<!-- Generator: Adobe Illustrator 27.0.0, SVG Export Plug-In . SVG Version: 6.00 Build 0)  -->
<svg version="1.1" id="Layer_1" xmlns="http://www.w3.org/2000/svg" xmlns:xlink="http://www.w3.org/1999/xlink" x="0px" y="0px"
	 viewBox="0 0 172.23 168.57" style="enable-background:new 0 0 172.23 168.57;" xml:space="preserve">
<style type="text/css">
	.st0{fill:#1D9BF0;}
</style>
<g >
	<path class="st0" d="M171.41,41.61c-6.27,2.81-13.01,4.71-20.1,5.56c7.31-4.42,12.78-11.38,15.39-19.57
		c-6.87,4.12-14.38,7.02-22.22,8.58c-5.27-5.69-12.25-9.46-19.86-10.72c-7.61-1.27-15.42,0.04-22.22,3.72
		c-6.8,3.68-12.2,9.52-15.38,16.62c-3.18,7.1-3.94,15.06-2.18,22.65c-13.92-0.71-27.53-4.36-39.96-10.73s-23.39-15.3-32.18-26.23
		C9.69,36.73,7.96,42.8,7.96,49.27c0,5.82,1.42,11.56,4.13,16.69c2.72,5.14,6.64,9.51,11.44,12.75c-5.56-0.18-10.99-1.7-15.85-4.43
		v0.46c0,8.17,2.8,16.08,7.91,22.4c5.12,6.32,12.24,10.66,20.16,12.28c-5.16,1.41-10.56,1.62-15.81,0.61
		c2.24,7.03,6.59,13.17,12.45,17.57c5.86,4.4,12.94,6.84,20.25,6.98c-12.4,9.83-27.71,15.17-43.47,15.15
		c-2.79,0-5.58-0.16-8.35-0.49c16,10.39,34.62,15.91,53.64,15.89c64.39,0,99.59-53.89,99.59-100.62c0-1.52-0.04-3.05-0.11-4.57
		c6.85-5,12.76-11.2,17.45-18.3L171.41,41.61z"/>
	<g id="XMLID_00000044147413634596196350000016700124104528709794_">
		<g>
			<path class="st0" d="M128.84,6.75c1.71,4.65-7.93,12.47-21.54,17.48c-13.61,5.01-26.03,5.31-27.73,0.66
				c-1.71-4.65,7.93-12.47,21.54-17.49C114.71,2.4,127.13,2.1,128.84,6.75z M105.92,18.75c10.64-3.92,18.67-8.7,17.94-10.67
				c-0.73-1.97-9.94-0.4-20.58,3.52c-10.63,3.92-18.67,8.7-17.94,10.67C86.07,24.25,95.28,22.67,105.92,18.75z"/>
		</g>
		<g>
		</g>
	</g>
</g>
</svg>
